<svg width="241" height="61" viewBox="0 0 241 61" fill="none" xmlns="http://www.w3.org/2000/svg">
<path d="M0 0H19.6087V5.29594H6.40293V9.9415H17.7312V14.9489H6.40293V20.4991H19.8281V25.9418H0V0Z" fill="#08757E"/>
<path d="M31.2786 12.3376L23.4078 0H30.7226L35.1115 7.54537H35.1847L39.6321 0H46.5812L38.9104 12.2643L47.4883 25.9565H39.9247L35.0774 17.1543H35.0043L29.9716 25.9565H22.7007L31.2786 12.3376Z" fill="#08757E"/>
<path d="M50.3164 0H61.9665C65.1119 0 67.4283 0.870432 69.0229 2.39613C69.8796 3.22188 70.5541 4.21868 71.0026 5.32212C71.4512 6.42556 71.6639 7.61109 71.627 8.80212C71.627 13.7704 68.2134 17.2913 62.8492 17.2913H56.8266V25.9418H50.3164V0ZM61.5666 12.1909C63.883 12.1909 65.185 10.8119 65.185 8.76789C65.185 6.72384 63.8489 5.42797 61.5666 5.42797H56.8266V12.1909H61.5666Z" fill="#08757E"/>
<path d="M80.5755 0H87.1589L96.4926 25.9418H89.763L88.2659 21.262H79.2003L77.7374 25.9418H71.3003L80.5755 0ZM86.759 16.6556L84.8084 10.3767C84.3744 9.03195 83.794 6.71406 83.794 6.71406H83.7209C83.7209 6.71406 83.1065 9.03195 82.6724 10.3767L80.6828 16.6556H86.759Z" fill="#08757E"/>
<path d="M102.51 5.44264H94.981V0H116.511V5.44264H108.913V25.9418H102.51V5.44264Z" fill="#08757E"/>
<path d="M119.847 0H126.254V20.4991H137.87V25.9418H119.827L119.847 0Z" fill="#08757E"/>
<path d="M149.652 0H156.236L165.569 25.9418H158.84L157.323 21.262H148.277L146.814 25.9418H140.353L149.652 0ZM155.841 16.6556L153.89 10.3767C153.456 9.03195 152.876 6.71406 152.876 6.71406H152.802C152.802 6.71406 152.188 9.03195 151.754 10.3767L149.759 16.6556H155.841Z" fill="#08757E"/>
<path d="M168.442 0H174.879L182.55 13.0271C182.95 13.7509 184.325 16.3279 184.325 16.3279H184.398C184.398 16.3279 184.335 13.2032 184.335 12.2985V0H190.596V25.9418H184.144L176.532 13.0956C176.098 12.4061 174.684 9.61387 174.684 9.61387H174.611C174.611 9.61387 174.684 12.9538 174.684 13.8584V25.9418H168.442V0Z" fill="#08757E"/>
<path d="M195.887 0H206.923C214.091 0 218.9 5.18836 218.9 13.1347C218.9 17.7069 217.31 21.3696 214.413 23.5848C212.389 25.1056 209.785 25.9418 206.528 25.9418H195.887V0ZM206.055 20.5383C210.254 20.5383 212.424 17.8879 212.424 13.1347C212.424 8.38157 210.146 5.37907 206.128 5.37907H202.295V20.5383H206.055Z" fill="#08757E"/>
<path d="M81.702 44.343H81.6581C81.6581 44.343 81.3265 45.5998 81.0631 46.3724L80.0342 49.4531H83.2868L82.3115 46.3724C82.0531 45.5998 81.702 44.343 81.702 44.343Z" fill="#08757E"/>
<path d="M47.4884 42.5779C45.2891 42.5779 44.1675 44.5339 44.1675 47.1207C44.1675 49.7076 45.2891 51.6392 47.4884 51.6392C49.6877 51.6392 50.8045 49.6831 50.8045 47.1207C50.8045 44.5584 49.6829 42.5779 47.4884 42.5779Z" fill="#08757E"/>
<path d="M67.1942 44.0547C67.1942 43.2429 66.5797 42.7539 65.7019 42.7539H62.8638V45.3114H65.7214C66.5992 45.3114 67.1942 44.8957 67.1942 44.0547Z" fill="#08757E"/>
<path d="M0 33.0764V60.407H240.727V33.0764H0ZM23.2173 54.9399H20.1597L19.8086 53.2675H19.7647C18.7894 54.7003 17.1704 55.3164 15.2588 55.3164C14.2969 55.3493 13.3389 55.1802 12.4461 54.8197C11.5534 54.4593 10.7457 53.9155 10.075 53.2235C8.61201 51.6831 7.90004 49.5657 7.90004 47.1207C7.90004 42.4702 10.826 38.9005 15.7025 38.9005C19.8135 38.9005 22.4078 41.0374 22.915 44.5436H18.4676C18.3149 43.9829 17.9738 43.4922 17.502 43.1545C17.0302 42.8168 16.4566 42.6529 15.8781 42.6903C13.6788 42.6903 12.5572 44.5436 12.5572 47.1207C12.5572 49.6977 13.8299 51.6147 16.0536 51.6147C17.7214 51.6147 18.5358 50.71 18.8187 49.6586H16.7315V46.3921H23.2173V54.9399ZM37.652 54.9399H26.3335V39.1841H30.9272V50.9985H37.652V54.9399ZM47.4636 55.3164C42.587 55.3164 39.5002 51.8347 39.5002 47.1207C39.5002 42.4067 42.5773 38.9005 47.4538 38.9005C52.3304 38.9005 55.4514 42.4018 55.4514 47.1207C55.4514 51.8396 52.345 55.3164 47.4636 55.3164ZM70.4469 53.9521C69.3108 54.6659 67.9815 55.0077 66.6431 54.9301H58.353V39.1841H66.4822C67.7346 39.1201 68.9723 39.4782 69.9982 40.2012C70.474 40.5637 70.8574 41.0341 71.1168 41.5739C71.3761 42.1136 71.5042 42.7074 71.4904 43.3064C71.5379 43.9545 71.3731 44.6003 71.021 45.1458C70.6689 45.6913 70.1488 46.1065 69.5398 46.3285V46.3921C70.3449 46.6355 71.0469 47.1393 71.5365 47.8249C72.0261 48.5104 72.2757 49.3392 72.2463 50.1819C72.2815 50.9106 72.1355 51.6367 71.8214 52.2949C71.5073 52.953 71.035 53.5225 70.4469 53.9521ZM85.0766 54.9301L84.3061 52.6171H79.0004L78.2299 54.9301H73.6605L79.4587 39.1743H84.1402L89.9629 54.9301H85.0766ZM103.69 54.9301H92.3816V39.1841H96.9754V50.9985H103.7L103.69 54.9301ZM125.635 54.9301H120.939L115.931 46.0155H115.882V54.9399H111.444V39.1841H116.062L121.183 48.0449H121.227V39.1841H125.664L125.635 54.9301ZM141.611 54.9301H129.18V39.1841H141.42V42.9348H133.774V45.0717H140.167V48.529H133.774V50.9985H141.64L141.611 54.9301ZM157.884 43.101H153.378V54.9301H148.789V43.1108H144.346V39.1988H157.884V43.101ZM177.507 54.9399H172.874L171.465 48.265C171.182 46.9006 170.919 45.2038 170.919 45.2038H170.875C170.875 45.2038 170.611 46.9006 170.324 48.265L168.963 54.9399H164.257L160.239 39.1841H164.828L165.974 44.5876C166.344 46.304 166.74 48.9887 166.74 48.9887H166.779C166.779 48.9887 167.198 46.6317 167.593 44.8272L168.802 39.2037H172.957L174.162 44.7832C174.562 46.6121 174.957 48.9887 174.957 48.9887H175C175 48.9887 175.415 46.3236 175.79 44.5876L176.932 39.2086H181.637L177.507 54.9399ZM190.737 55.3164C185.861 55.3164 182.783 51.8347 182.783 47.1207C182.783 42.4067 185.861 38.9005 190.737 38.9005C195.614 38.9005 198.74 42.4018 198.74 47.1207C198.74 51.8396 195.623 55.3164 190.742 55.3164H190.737ZM215.564 54.9399H211.033C210.594 54.6318 210.77 52.6954 210.443 51.2821C210.156 50.0743 209.629 49.4532 208.288 49.4532H206.157V54.9399H201.563V39.1841H209.366C212.574 39.1841 215.3 40.6511 215.3 43.8786C215.3 45.6879 214.374 46.9642 212.726 47.7124V47.7808C213.293 47.9731 213.798 48.3168 214.186 48.7752C214.573 49.2336 214.829 49.7892 214.925 50.3824C215.339 52.2748 214.988 54.5438 215.564 54.7003V54.9399ZM227.94 54.9399L223.942 48.7051L222.937 49.8787V54.9643H218.343V39.1841H222.937V44.3431L227.682 39.1841H232.954L227.102 45.5412L233.3 54.9497L227.94 54.9399Z" fill="#08757E"/>
<path d="M66.1164 48.2649H62.8638V51.3456H66.1408C66.3541 51.3679 66.5697 51.3444 66.7733 51.2767C66.9768 51.2089 67.1637 51.0986 67.3214 50.9529C67.4791 50.8072 67.6042 50.6295 67.6882 50.4316C67.7722 50.2338 67.8132 50.0203 67.8086 49.8053C67.8086 48.7735 67.0625 48.2649 66.1164 48.2649Z" fill="#08757E"/>
<path d="M190.766 42.5779C188.567 42.5779 187.445 44.5339 187.445 47.1207C187.445 49.7076 188.567 51.6392 190.766 51.6392C192.966 51.6392 194.082 49.6831 194.082 47.1207C194.082 44.5584 192.961 42.5779 190.766 42.5779Z" fill="#08757E"/>
<path d="M208.688 42.7979H206.162V46.172H208.624C209.941 46.172 210.668 45.5999 210.668 44.4947C210.668 43.4629 210.009 42.7979 208.688 42.7979Z" fill="#08757E"/>
<path d="M220.528 0H228.935V1.78976H225.785V10.4843H223.668V1.78976H220.523L220.528 0Z" fill="#08757E"/>
<path d="M230.691 0H233.675L235.138 5.2666C235.504 6.58203 235.797 8.09306 235.797 8.09306H235.826C235.826 8.09306 236.104 6.58203 236.47 5.2666L237.977 0H241V10.4843H239.049V4.47441C239.049 3.62354 239.137 2.30322 239.137 2.30322H239.108C239.108 2.30322 238.874 3.53552 238.654 4.29837L236.855 10.4843H234.821L233.066 4.29837C232.846 3.53552 232.612 2.30322 232.612 2.30322H232.583C232.583 2.30322 232.671 3.62354 232.671 4.47441V10.4843H230.72L230.691 0Z" fill="#08757E"/>
</svg>
